<?xml version="1.0" encoding="UTF-8" standalone="no"?>
<!-- Created with Inkscape (http://www.inkscape.org/) -->

<svg
   xmlns:dc="http://purl.org/dc/elements/1.1/"
   xmlns:cc="http://creativecommons.org/ns#"
   xmlns:rdf="http://www.w3.org/1999/02/22-rdf-syntax-ns#"
   xmlns:svg="http://www.w3.org/2000/svg"
   xmlns="http://www.w3.org/2000/svg"
   xmlns:sodipodi="http://sodipodi.sourceforge.net/DTD/sodipodi-0.dtd"
   xmlns:inkscape="http://www.inkscape.org/namespaces/inkscape"
   width="200"
   height="200"
   id="svg2"
   version="1.1"
   inkscape:version="0.48.4 r9939"
   sodipodi:docname="16.svg"
   inkscape:export-filename="/home/ybon/Code/js/Leaflet.Storage/src/img/16.png"
   inkscape:export-xdpi="89.996864"
   inkscape:export-ydpi="89.996864">
  <defs
     id="defs4" />
  <sodipodi:namedview
     id="base"
     pagecolor="#ffffff"
     bordercolor="#666666"
     borderopacity="1.0"
     inkscape:pageopacity="0.0"
     inkscape:pageshadow="2"
     inkscape:zoom="2.8"
     inkscape:cx="82.485537"
     inkscape:cy="117.22788"
     inkscape:document-units="px"
     inkscape:current-layer="layer1"
     showgrid="true"
     inkscape:window-width="1366"
     inkscape:window-height="744"
     inkscape:window-x="0"
     inkscape:window-y="24"
     inkscape:window-maximized="1"
     showguides="true"
     inkscape:guide-bbox="true">
    <inkscape:grid
       type="xygrid"
       id="grid3004"
       empspacing="4"
       visible="true"
       enabled="true"
       snapvisiblegridlinesonly="true" />
    <sodipodi:guide
       orientation="1,0"
       position="40,40"
       id="guide3084" />
    <sodipodi:guide
       orientation="0,1"
       position="120,120"
       id="guide3086" />
    <sodipodi:guide
       orientation="1,0"
       position="80,80"
       id="guide3088" />
    <sodipodi:guide
       orientation="0,1"
       position="80,80"
       id="guide3090" />
    <sodipodi:guide
       orientation="1,0"
       position="120,120"
       id="guide14621" />
    <sodipodi:guide
       orientation="0,1"
       position="40,40"
       id="guide17864" />
    <sodipodi:guide
       orientation="0,1"
       position="160,160"
       id="guide3026" />
    <sodipodi:guide
       orientation="1,0"
       position="160,160"
       id="guide3028" />
  </sodipodi:namedview>
  <metadata
     id="metadata7">
    <rdf:RDF>
      <cc:Work
         rdf:about="">
        <dc:format>image/svg+xml</dc:format>
        <dc:type
           rdf:resource="http://purl.org/dc/dcmitype/StillImage" />
        <dc:title></dc:title>
      </cc:Work>
    </rdf:RDF>
  </metadata>
  <g
     inkscape:label="Layer 1"
     inkscape:groupmode="layer"
     id="layer1"
     transform="translate(0,-852.36218)">
    <text
       xml:space="preserve"
       style="font-size:40px;font-style:normal;font-weight:normal;line-height:125%;letter-spacing:0px;word-spacing:0px;fill:#000000;fill-opacity:1;stroke:none;font-family:Sans"
       x="13.786797"
       y="953.80786"
       id="text4457"
       sodipodi:linespacing="125%"><tspan
         y="953.80786"
         x="13.786797"
         sodipodi:role="line"
         id="tspan4459" /></text>
    <g
       id="g3001"
       transform="translate(-15.255701,-71.386508)">
      <path
         transform="matrix(1.0714286,0,0,1.0714286,26.684272,934.10579)"
         d="m 15,9 c 0,3.865993 -3.134007,7 -7,7 C 4.1340068,16 1,12.865993 1,9 1,5.1340068 4.1340068,2 8,2 c 3.865993,0 7,3.1340068 7,7 z"
         sodipodi:ry="7"
         sodipodi:rx="7"
         sodipodi:cy="9"
         sodipodi:cx="8"
         id="path3014"
         style="fill:none;stroke:#4d4d4d;stroke-width:0.93333334;stroke-miterlimit:4;stroke-opacity:1;stroke-dasharray:none"
         sodipodi:type="arc" />
      <g
         id="text3784"
         style="font-size:40px;font-style:normal;font-weight:normal;line-height:125%;letter-spacing:0px;word-spacing:0px;fill:#4d4d4d;fill-opacity:1;stroke:none;font-family:Sans"
         transform="translate(27.255701,-100.61365)">
        <path
           inkscape:connector-curvature="0"
           id="path3789"
           style="font-size:12px;font-weight:bold;fill:#4d4d4d;-inkscape-font-specification:Sans Bold"
           d="m 9,1046.0464 -2.3698034,0 0,-0.3223 c 0,-0.3596 0.072207,-0.6775 0.2166302,-0.9539 0.1444174,-0.2807 0.4485749,-0.636 0.9124728,-1.0658 l 0.4201314,-0.3816 c 0.249449,-0.228 0.4310681,-0.4429 0.5448577,-0.6446 0.1181576,-0.2019 0.1772384,-0.4036 0.177243,-0.6053 -4.6e-6,-0.3071 -0.1050376,-0.5462 -0.3150985,-0.7171 -0.2100697,-0.1756 -0.5032861,-0.2632 -0.87965,-0.2632 -0.3544889,0 -0.7374207,0.075 -1.1487968,0.2237 -0.4113804,0.1446 -0.840264,0.3618 -1.2866522,0.6513 l 0,-2.0659 c 0.5295391,-0.184 1.0131273,-0.32 1.4507661,-0.4077 0.437634,-0.088 0.8599531,-0.1317 1.2669587,-0.1317 1.0678292,0 1.8818328,0.2194 2.442012,0.6579 0.560169,0.4341 0.840256,1.0702 0.840263,1.9078 -7e-6,0.4298 -0.08535,0.8159 -0.256017,1.158 -0.170685,0.3377 -0.461713,0.7017 -0.873085,1.092 l -0.4201313,0.375 c -0.297598,0.272 -0.4923463,0.4913 -0.5842451,0.658 -0.091909,0.1622 -0.1378603,0.342 -0.1378556,0.5394 l 0,0.296 m -2.3698034,0.9739 2.3698034,0 0,2.342 -2.3698034,0 0,-2.342"
           sodipodi:nodetypes="ccsccccccsccccsccccccccccccc" />
      </g>
    </g>
    <path
       inkscape:connector-curvature="0"
       style="fill:#4d4d4d;fill-opacity:1;fill-rule:nonzero;stroke:none"
       d="m 99.999997,907.86202 c -3,0 -5,1.5 -8,4.5 3,3 5,4.5 8,4.5 3.000003,0 5.000003,-1.5 8.000003,-4.5 -3,-3 -5,-4.5 -8.000003,-4.5 z m 0,2.5 c 1.104563,0 1.999993,0.8954 1.999993,2 0,1.1046 -0.89543,2 -1.999993,2 -1.104569,0 -2,-0.8954 -2,-2 0,-1.1046 0.895431,-2 2,-2 z"
       id="path2990-6"
       inkscape:label="eye-on"
       inkscape:export-filename="/home/ybon/Code/js/leaflet-storage/src/img/eye-on.png"
       inkscape:export-xdpi="89.996864"
       inkscape:export-ydpi="89.996864" />
    <g
       id="eye-off"
       style="fill:#b3b3b3"
       inkscape:label="eye-off"
       inkscape:export-filename="/home/ybon/Code/js/leaflet-storage/src/img/eye-off.png"
       inkscape:export-xdpi="89.996864"
       inkscape:export-ydpi="89.996864"
       transform="translate(131,-131.00018)">
      <path
         id="path2990"
         transform="translate(0,1034.3622)"
         d="M 9,4.5 C 6.0000002,4.4999664 4.0000001,6 1,9 c 3.0000001,2.999999 5.0000002,4.500033 8,4.5 3,-3.3e-5 5,-1.500001 8,-4.5 C 14,6 12,4.5000336 9,4.5 z M 9,7 c 1.104569,0 2,0.8954305 2,2 0,1.104569 -0.895431,2 -2,2 C 7.8954305,11 7,10.104569 7,9 7,7.8954305 7.8954305,7 9,7 z"
         style="fill:#b3b3b3;fill-opacity:1;fill-rule:nonzero;stroke:none"
         inkscape:connector-curvature="0" />
      <path
         sodipodi:nodetypes="ccccc"
         inkscape:connector-curvature="0"
         id="rect3787"
         d="m 2,1047.8622 13,-10 1,1 -13,10 z"
         style="fill:#b3b3b3;fill-opacity:1;fill-rule:nonzero;stroke:none" />
    </g>
    <path
       style="fill:#b3b3b3;fill-opacity:1;fill-rule:nonzero;stroke:none"
       d="m 134,867.36214 0,2 12,0 0,-2 -12,0 z m 0,3 0,1 4,0 0,-1 -4,0 z m 5,0 0,1 7,0 0,-1 -7,0 z m -5,2 0,1 4,0 0,-1 -4,0 z m 5,0 0,1 7,0 0,-1 -7,0 z m -5,2 0,1 4,0 0,-1 -4,0 z m 5,0 0,1 7,0 0,-1 -7,0 z m -5,2 0,1 4,0 0,-1 -4,0 z m 5,0 0,1 7,0 0,-1 -7,0 z"
       id="table"
       inkscape:connector-curvature="0"
       inkscape:label="table"
       inkscape:export-filename="/home/ybon/Code/js/leaflet-storage/src/img/browse-data.png"
       inkscape:export-xdpi="89.996864"
       inkscape:export-ydpi="89.996864" />
    <path
       style="fill:#f2f2f2;fill-opacity:1;fill-rule:nonzero;stroke:none"
       d="m 59,907.36202 0,4 -4,0 0,2 4,0 0,4 2,0 0,-4 4,0 0,-2 -4,0 0,-4 z"
       id="rect5280"
       inkscape:export-filename="/home/ybon/Code/js/leaflet-storage/src/img/add-layer-grey-18.png"
       inkscape:export-xdpi="89.996864"
       inkscape:export-ydpi="89.996864"
       inkscape:connector-curvature="0"
       sodipodi:nodetypes="ccccccccccccc" />
    <path
       style="font-size:medium;font-style:normal;font-variant:normal;font-weight:normal;font-stretch:normal;text-indent:0;text-align:start;text-decoration:none;line-height:normal;letter-spacing:normal;word-spacing:normal;text-transform:none;direction:ltr;block-progression:tb;writing-mode:lr-tb;text-anchor:start;baseline-shift:baseline;color:#000000;fill:#4d4d4d;fill-opacity:1;stroke:none;stroke-width:3;marker:none;visibility:visible;display:inline;overflow:visible;enable-background:accumulate;font-family:Sans;-inkscape-font-specification:Sans"
       d="m 21.517525,946.362 c -2.466762,0 -4.48249,2.0158 -4.48249,4.4826 0,0.8297 0.233748,1.5964 0.63035,2.26462 l -3.66537,3.66532 1.587549,1.5876 3.66537,-3.66542 c 0.668139,0.3966 1.434831,0.6303 2.264591,0.6303 2.466762,0 4.48249,-2.0157 4.48249,-4.48242 0,-2.4668 -2.015728,-4.4826 -4.48249,-4.4826 z m 0,1.4943 c 1.659256,0 2.988326,1.329 2.988326,2.9883 0,1.6592 -1.32907,2.98832 -2.988326,2.98832 -1.659256,0 -2.988326,-1.32912 -2.988326,-2.98832 0,-1.6593 1.32907,-2.9883 2.988326,-2.9883 z m 0,1.4941 c -0.816354,0 -1.494163,0.6779 -1.494163,1.4942 0,0.8163 0.677809,1.4942 1.494163,1.4942 0.816354,0 1.494163,-0.6779 1.494163,-1.4942 0,-0.8163 -0.677809,-1.4942 -1.494163,-1.4942 z"
       id="path4354"
       inkscape:export-filename="/home/ybon/Code/js/leaflet-storage/src/img/zoom_to.png"
       inkscape:export-xdpi="89.996864"
       inkscape:export-ydpi="89.996864"
       inkscape:connector-curvature="0" />
    <path
       id="path4392"
       d="m 61.51751,946.36205 c -2.466762,0 -4.482491,2.0157 -4.482491,4.4825 0,0.8298 0.233749,1.5964 0.630351,2.2645 L 54,956.77459 l 1.587549,1.5875 3.665369,-3.66544 c 0.668139,0.39662 1.434831,0.63042 2.264592,0.63042 2.466762,0 4.48249,-2.01572 4.48249,-4.48252 0,-2.4668 -2.015728,-4.4825 -4.48249,-4.4825 z m 0,1.4942 c 1.659256,0 2.988327,1.329 2.988327,2.9883 0,1.6593 -1.329071,2.9883 -2.988327,2.9883 -1.659256,0 -2.988327,-1.329 -2.988327,-2.9883 0,-1.6593 1.329071,-2.9883 2.988327,-2.9883 z m 0,1.4941 c -0.816355,0 -1.494164,0.6779 -1.494164,1.4942 0,0.8163 0.677809,1.4942 1.494164,1.4942 0.816355,0 1.494163,-0.6779 1.494163,-1.4942 0,-0.8163 -0.677808,-1.4942 -1.494163,-1.4942 z"
       style="font-size:medium;font-style:normal;font-variant:normal;font-weight:normal;font-stretch:normal;text-indent:0;text-align:start;text-decoration:none;line-height:normal;letter-spacing:normal;word-spacing:normal;text-transform:none;direction:ltr;block-progression:tb;writing-mode:lr-tb;text-anchor:start;baseline-shift:baseline;color:#000000;fill:#b3b3b3;fill-opacity:1;stroke:none;stroke-width:3;marker:none;visibility:visible;display:inline;overflow:visible;enable-background:accumulate;font-family:Sans;-inkscape-font-specification:Sans"
       inkscape:connector-curvature="0"
       inkscape:export-filename="/home/ybon/Code/js/leaflet-storage/src/img/zoom_to-off.png"
       inkscape:export-xdpi="89.996864"
       inkscape:export-ydpi="89.996864" />
    <path
       inkscape:connector-curvature="0"
       style="fill:#f2f2f2;fill-opacity:1;stroke:none"
       d="m 60,985.36215 c -3.865993,0 -7,3.134 -7,7 0,3.86602 3.134007,7.00005 7,7.00005 3.865993,0 7,-3.13404 7,-7.00005 0,-3.866 -3.134007,-7 -7,-7 z m -0.15625,2.9687 a 1.0001,1.0001 0 0 1 0.09375,0 1.0001,1.0001 0 0 1 0.65625,1.8125 l -1.625,1.2188 5.03125,0 a 1.0001,1.0001 0 1 1 0,2 l -5,0 1.59375,1.1875 a 1.0001,1.0001 0 1 1 -1.1875,1.59372 l -3.71875,-2.78122 a 1.0043849,1.0043849 0 0 1 -0.15625,-1.9063 l 3.875,-2.9062 a 1.0001,1.0001 0 0 1 0.4375,-0.2188 z"
       id="path5321"
       inkscape:export-filename="/home/ybon/Code/js/leaflet-storage/src/img/arrow-left-16.png"
       inkscape:export-xdpi="89.996864"
       inkscape:export-ydpi="89.996864" />
    <path
       inkscape:export-ydpi="89.996864"
       inkscape:export-xdpi="89.996864"
       inkscape:export-filename="/home/ybon/Code/js/leaflet-storage/src/img/arrow-right-16.png"
       id="path5338"
       d="m 20.000015,999.36218 c 3.865993,0 7,-3.134 7,-7.00002 0,-3.866 -3.134007,-7 -7,-7 -3.865993,0 -7,3.134 -7,7 0,3.86602 3.134007,7.00002 7,7.00002 z m 0.15625,-2.9687 a 1.0001,1.0001 0 0 1 -0.09375,0 1.0001,1.0001 0 0 1 -0.65625,-1.81252 l 1.625,-1.2188 -5.03125,0 a 1.0001,1.0001 0 1 1 0,-2 l 5,0 -1.59375,-1.1875 a 1.0001,1.0001 0 1 1 1.1875,-1.5937 l 3.71875,2.7812 a 1.0043849,1.0043849 0 0 1 0.15625,1.9063 l -3.875,2.90622 a 1.0001,1.0001 0 0 1 -0.4375,0.2188 z"
       style="fill:#f2f2f2;fill-opacity:1;stroke:none"
       inkscape:connector-curvature="0" />
    <path
       inkscape:connector-curvature="0"
       style="fill:#f2f2f2;fill-opacity:1;stroke:none"
       d="m 20.000015,1025.3621 c -3.865993,0 -7,3.134 -7,7 0,3.8661 3.134007,7.0001 7,7.0001 3.865993,0 7,-3.134 7,-7.0001 0,-3.866 -3.134007,-7 -7,-7 z m -0.15625,1.7187 a 1.250125,1.250125 0 0 1 0.125,0 1.250125,1.250125 0 0 1 1.28125,1.2813 l 0,2.75 2.75,0 a 1.250125,1.250125 0 1 1 0,2.5 l -2.75,0 0,2.7501 a 1.250125,1.250125 0 1 1 -2.5,0 l 0,-2.7501 -2.75,0 a 1.2515615,1.2515615 0 0 1 -0.125,-2.5 1.250125,1.250125 0 0 1 0.125,0 l 2.75,0 0,-2.75 a 1.250125,1.250125 0 0 1 1.09375,-1.2813 z"
       id="path5340"
       inkscape:export-filename="/home/ybon/Code/js/leaflet-storage/src/img/zoom-grey-16.png"
       inkscape:export-xdpi="89.996864"
       inkscape:export-ydpi="89.996864" />
    <path
       style="fill:#464646;fill-opacity:1;fill-rule:nonzero;stroke:none"
       d="m 94,867.36214 0,2 12,0 0,-2 -12,0 z m 0,3 0,1 4,0 0,-1 -4,0 z m 5,0 0,1 7,0 0,-1 -7,0 z m -5,2 0,1 4,0 0,-1 -4,0 z m 5,0 0,1 7,0 0,-1 -7,0 z m -5,2 0,1 4,0 0,-1 -4,0 z m 5,0 0,1 7,0 0,-1 -7,0 z m -5,2 0,1 4,0 0,-1 -4,0 z m 5,0 0,1 7,0 0,-1 -7,0 z"
       id="table-5"
       inkscape:connector-curvature="0"
       inkscape:label="table"
       inkscape:export-filename="/home/ybon/Code/js/leaflet-storage/src/img/browse-data.png"
       inkscape:export-xdpi="89.996864"
       inkscape:export-ydpi="89.996864" />
    <g
       transform="translate(32,-48.000118)"
       style="font-size:40px;font-style:normal;font-weight:normal;line-height:125%;letter-spacing:0px;word-spacing:0px;fill:#4d4d4d;fill-opacity:1;stroke:none;font-family:Sans"
       id="text3784-6" />
    <g
       id="text4356"
       style="font-size:40px;font-style:normal;font-weight:normal;line-height:125%;letter-spacing:0px;word-spacing:0px;fill:#4d4d4d;fill-opacity:1;stroke:none;font-family:Sans"
       transform="translate(20,-124.00004)">
      <path
         inkscape:connector-curvature="0"
         id="path4384"
         style="font-size:20px;font-variant:normal;font-stretch:normal;fill:#4d4d4d;font-family:Arial;-inkscape-font-specification:Arial"
         d="m 35.742187,999.43835 3.076172,-3.07617 -3.066406,-3.0664 1.191406,-1.19141 3.066407,3.06641 3.05664,-3.05664 1.171875,1.18164 -3.046875,3.05664 3.066406,3.0664 -1.191406,1.19138 L 40,997.54382 36.923828,1000.62 35.742187,999.43835" />
    </g>
    <path
       inkscape:connector-curvature="0"
       d="m 19.192256,917.3618 2e-6,-4.19993 -4.192255,10e-6 -3e-6,-1.62667 4.192263,0 0,-4.17331 1.608812,0.007 0.0067,4.16664 4.192255,0 -3.9e-5,1.62662 -4.19222,4e-5 -1.5e-5,4.19994 -1.615475,0"
       style="font-size:20px;font-style:normal;font-variant:normal;font-weight:normal;font-stretch:normal;line-height:125%;letter-spacing:0px;word-spacing:0px;fill:#4d4d4d;fill-opacity:1;stroke:none;font-family:Arial;-inkscape-font-specification:Arial"
       id="path4384-3" />
    <path
       style="fill:#4d4d4d;fill-opacity:1;stroke:none"
       d="m 103.71429,946.36213 -1.14285,1.14286 2.28571,2.28572 L 106,948.64785 z M 102,948.07641 l -6.285714,6.28574 2.285715,2.2857 6.285719,-6.28572 z M 95.714286,954.36215 94,958.36214 l 4.000001,-1.71429 z"
       id="path3684"
       inkscape:connector-curvature="0"
       sodipodi:nodetypes="cccccccccccccc" />
    <text
       xml:space="preserve"
       style="font-size:30.4761982px;font-style:normal;font-weight:normal;line-height:125%;letter-spacing:0px;word-spacing:0px;fill:#000000;fill-opacity:1;stroke:none;font-family:Sans"
       x="81.647079"
       y="988.79706"
       id="text4457-6"
       sodipodi:linespacing="125%"><tspan
         y="988.79706"
         x="81.647079"
         sodipodi:role="line"
         id="tspan4459-6" /></text>
    <g
       id="text4356-2"
       style="font-size:40px;font-style:normal;font-weight:normal;line-height:125%;letter-spacing:0px;word-spacing:0px;fill:#ffffff;fill-opacity:1;stroke:none;font-family:Sans"
       transform="translate(100,-44.00004)">
      <path
         inkscape:connector-curvature="0"
         id="path4384-2"
         style="font-size:20px;font-variant:normal;font-stretch:normal;fill:#ffffff;font-family:Arial;-inkscape-font-specification:Arial"
         d="m 35.742187,999.43835 3.076172,-3.07617 -3.066406,-3.0664 1.191406,-1.19141 3.066407,3.06641 3.05664,-3.05664 1.171875,1.18164 -3.046875,3.05664 3.066406,3.0664 -1.191406,1.19138 L 40,997.54382 36.923828,1000.62 35.742187,999.43835" />
    </g>
    <path
       style="fill:#b3b3b3;fill-opacity:1;fill-rule:nonzero;stroke:none"
       d="m 134,987.36216 0,2 12,0 0,-2 -12,0 z m 0,3.00002 0,1 4,0 0,-1 -4,0 z m 5,0 0,1 7,0 0,-1 -7,0 z m -5,2 0,1 4,0 0,-1 -4,0 z m 5,0 0,1 7,0 0,-1 -7,0 z m -5,2 0,1 4,0 0,-1 -4,0 z m 5,0 0,1 7,0 0,-1 -7,0 z m -5,2 0,1 4,0 0,-1 -4,0 z m 5,0 0,1 7,0 0,-1 -7,0 z"
       id="table-0"
       inkscape:connector-curvature="0"
       inkscape:label="table"
       inkscape:export-filename="/home/ybon/Code/js/leaflet-storage/src/img/browse-data.png"
       inkscape:export-xdpi="89.996864"
       inkscape:export-ydpi="89.996864" />
    <path
       style="fill:#b3b3b3;fill-opacity:1;stroke:none"
       d="m 103.71429,986.36216 -1.14285,1.1428 2.28571,2.2858 L 106,988.64786 z M 102,988.07646 95.714286,994.36218 98,996.64788 l 6.28572,-6.2857 z m -6.285714,6.28572 -1.714286,4 4,-1.7143 z"
       id="path3684-2"
       inkscape:connector-curvature="0"
       sodipodi:nodetypes="cccccccccccccc" />
    <path
       id="table-5-8-8-6"
       style="fill:#464646;fill-opacity:1;fill-rule:nonzero;stroke:none"
       d="m 54,1026.3622 0,1 1,0 0,-1 z m 2,0 0,1 10,0 0,-1 z m -2,2 0,1 1,0 0,-1 z m 2,0 0,1 10,0 0,-1 z m -2,2 0,1 1,0 0,-1 z m 2,0 0,1 10,0 0,-1 z m -2,2 0,1 1,0 0,-1 z m 2,0 0,1 10,0 0,-1 z m -2,2 0,1 1,0 0,-1 z m 2,0 0,1 10,0 0,-1 z m -2,2 0,1 1,0 0,-1 z m 2,0 0,1 10,0 0,-1 z" />
    <path
       inkscape:connector-curvature="0"
       id="table-5-8-8-6-1"
       style="fill:#f2f2f2;fill-opacity:1;fill-rule:nonzero;stroke:none"
       d="m 94,1026.3622 0,1 1,0 0,-1 z m 2,0 0,1 10,0 0,-1 z m -2,2 0,1 1,0 0,-1 z m 2,0 0,1 10,0 0,-1 z m -2,2 0,1 1,0 0,-1 z m 2,0 0,1 10,0 0,-1 z m -2,2 0,1 1,0 0,-1 z m 2,0 0,1 10,0 0,-1 z m -2,2 0,1 1,0 0,-1 z m 2,0 0,1 10,0 0,-1 z m -2,2 0,1 1,0 0,-1 z m 2,0 0,1 10,0 0,-1 z" />
    <path
       sodipodi:type="arc"
       style="fill:#464646;fill-opacity:1;stroke:none"
       id="path3762"
       sodipodi:cx="14.291457"
       sodipodi:cy="11.798995"
       sodipodi:rx="9.748744"
       sodipodi:ry="9.748744"
       d="m 24.040201,11.798995 a 9.748744,9.748744 0 1 1 -19.4974878,0 9.748744,9.748744 0 1 1 19.4974878,0 z"
       transform="matrix(0.82061853,0,0,0.82061853,168.27217,902.67971)" />
    <path
       sodipodi:type="arc"
       style="fill:#ffffff;fill-opacity:1;stroke:none"
       id="path3764"
       sodipodi:cx="12.020101"
       sodipodi:cy="6.874372"
       sodipodi:rx="1.8090452"
       sodipodi:ry="2.0904522"
       d="m 13.829146,6.874372 a 1.8090452,2.0904522 0 1 1 -3.618091,0 1.8090452,2.0904522 0 1 1 3.618091,0 z"
       transform="matrix(0.82916668,0,0,0.71754808,170.03333,903.42949)" />
    <path
       style="fill:#ffffff;fill-opacity:1;stroke:none"
       d="m 179,911.36218 2,0 0,6 -2,0 z"
       id="rect4274"
       inkscape:connector-curvature="0"
       sodipodi:nodetypes="ccccc" />
  </g>
</svg>
